<svg version="1.2" xmlns="http://www.w3.org/2000/svg" viewBox="0 0 50 50" width="50" height="50">
	<title>news_icon-svg</title>
	<style>
		.s0 { fill: #1d77f1 } 
	</style>
	<path id="Layer" fill-rule="evenodd" class="s0" d="m43.3 40.2c0 0.8-0.3 1.4-1 1.8-0.4 0.3-1 0.3-1.6 0.3h-29.7q-0.2 0-0.4 0l-0.1-0.1h-0.1q-1 0.2-1.8 0c-1.5-0.4-2.8-1.5-3.3-3.1-0.3-0.6-0.3-1.3-0.3-1.8v-16.7c0-0.5 0.4-0.9 0.9-0.9h8.1v-4.2c0-0.3 0-0.7 0.1-1 0.2-0.8 1.1-1.5 2-1.5h25.1c1.2 0 2.1 0.9 2.1 2h0.4l-0.4 0.1zm-29.3-2.5q0-0.1 0-0.2 0-0.5 0-1v-0.3-14.8h-7.2v15 0.1q-0.1 0.7 0 1.4 0.1 0.4 0.3 0.8 0.1 0.3 0.3 0.5l0.1 0.1q0.2 0.2 0.3 0.3 0.2 0.1 0.4 0.3h0.1q0.3 0.2 0.7 0.3 0.4 0.2 0.9 0.3 0.3 0 0.5 0 0.2 0 0.5 0 0.5-0.1 0.9-0.3 0.4-0.1 0.7-0.3h0.1q0.2-0.2 0.4-0.3 0.1-0.1 0.3-0.3 0 0 0.1-0.1 0.2-0.2 0.3-0.5 0.2-0.4 0.3-0.9zm0.7 2.8h25.9q0.3 0 0.6 0h0.3v-0.3q0-1 0-2v-23.2l-0.1-0.3h-0.2q-0.7 0-1.5 0-0.3 0-0.5 0h-22.4q-0.4 0-0.7 0h-0.3v0.4q0 1.1 0 2.2v19.8c0 0.6 0 1.3-0.3 1.9q-0.1 0.5-0.5 1zm24-8.1q-0.2 0.3-0.7 0.3-0.7 0-1.5 0h-17.1c-0.5 0-0.9-0.4-0.9-0.9q0-0.3 0.2-0.5 0.3-0.3 0.7-0.3 0.4-0.1 0.8 0 0.3 0 0.7 0h17.2c0.5 0 0.8 0.3 0.9 0.9q0 0.3-0.3 0.5zm-9.1-13.2v0.1 5 1.8 0.1c0 0.8-0.5 1.4-1.2 1.6h-0.1q-0.1 0-0.1 0h-0.1q0 0.1-0.1 0.1h-5.5-0.6q-0.9 0-1.7 0c-0.7 0-1.3-0.4-1.5-0.9q-0.2-0.4-0.2-0.9v-7.5q0-0.6 0.4-1.2c0.3-0.3 0.8-0.5 1.3-0.5q1 0 2.1 0h0.3 5.2q0.4 0 0.6 0.1c0.7 0.2 1.2 0.8 1.2 1.6q0.1 0.3 0 0.6zm-1.7 6.9l-0.1-5v-2.1l0.1-0.3h-5.1-2.2-0.3v5 2.1 0.3zm10.8 11.1q-0.2 0.3-0.7 0.3-0.7 0-1.5 0h-17.1c-0.5 0-0.9-0.4-0.9-0.9q0-0.3 0.2-0.6 0.3-0.2 0.7-0.2 0.4-0.1 0.8-0.1 0.3 0 0.7 0l17.2 0.1c0.5 0 0.9 0.3 0.9 0.8q0 0.4-0.3 0.6z"/>
</svg>